<svg xmlns="http://www.w3.org/2000/svg" viewBox="0 0 750 500"><g id="freepik--Lamp--inject-6"><path d="M335.23,97.19H455.69S444.57,44,394.55,44C350.06,44,335.23,97.19,335.23,97.19Z" style="fill:#407BFF"></path><rect x="394.17" width="2.58" height="43.98" style="fill:#407BFF"></rect></g><g id="freepik--Floor--inject-6"><path d="M663.67,439.83c0,.14-129.25.26-288.66.26S86.33,440,86.33,439.83s129.23-.26,288.68-.26S663.67,439.68,663.67,439.83Z" style="fill:#263238"></path></g><g id="freepik--Plant--inject-6"><path d="M118.29,377.2a12.62,12.62,0,0,1,8.78,4.5,22.15,22.15,0,0,1,4.47,9c1.69,6.32.65,13.79-1.15,20.08-6.84-2.45-11.07-9.75-13-13.59-3-6.06-4.79-18.86.87-20" style="fill:#407BFF"></path><path d="M140.24,418.45a10.74,10.74,0,0,1-.5-10.78,14.26,14.26,0,0,1,8.6-6.91c1.67-.52,3.61-.73,5.06.24a4.58,4.58,0,0,1,1.77,4.31,9.27,9.27,0,0,1-2,4.42c-3.33,4.51-7.37,8.26-13,8.72" style="fill:#407BFF"></path><path d="M141,439.58a6.5,6.5,0,0,1-.31-1.31c-.18-.94-.42-2.15-.71-3.6a37.77,37.77,0,0,1-.74-12.11,23,23,0,0,1,4.49-11.21,15.32,15.32,0,0,1,2.59-2.63,9.16,9.16,0,0,1,.82-.58,1.15,1.15,0,0,1,.3-.18,25.37,25.37,0,0,0-3.45,3.59,23.85,23.85,0,0,0-4.28,11.08c-.64,4.66.15,8.93.61,12,.24,1.53.44,2.77.55,3.63A8.23,8.23,0,0,1,141,439.58Z" style="fill:#263238"></path><path d="M120.49,386.83a2.34,2.34,0,0,1,.28.51c.18.4.42.9.7,1.53.61,1.33,1.46,3.26,2.49,5.65,2.06,4.79,4.82,11.45,7.7,18.87s5.33,14.19,7,19.12c.86,2.46,1.53,4.46,2,5.85.21.66.37,1.19.5,1.6a2.61,2.61,0,0,1,.15.57,2.46,2.46,0,0,1-.24-.54c-.15-.4-.34-.92-.59-1.57l-2.11-5.8c-1.79-4.89-4.29-11.65-7.16-19.06s-5.59-14.09-7.57-18.91c-1-2.37-1.77-4.3-2.34-5.71-.26-.64-.47-1.15-.63-1.56A3.49,3.49,0,0,1,120.49,386.83Z" style="fill:#263238"></path><path d="M132.87,425.6a25.18,25.18,0,0,0-19.52-12.13c-2-.14-4.46.2-5.36,2s.3,4,1.68,5.46a21.49,21.49,0,0,0,23.27,5.2" style="fill:#407BFF"></path><path d="M116.43,418.89a7.15,7.15,0,0,1,1.27.05,12.09,12.09,0,0,1,1.47.17c.57.11,1.24.17,1.94.37a19.41,19.41,0,0,1,2.31.64,22.91,22.91,0,0,1,2.57,1,27.8,27.8,0,0,1,5.42,3.21,27.31,27.31,0,0,1,4.48,4.44,22.49,22.49,0,0,1,1.57,2.25,21.93,21.93,0,0,1,1.18,2.09,17.4,17.4,0,0,1,.8,1.8,11.34,11.34,0,0,1,.51,1.4,6.82,6.82,0,0,1,.33,1.23c-.11,0-.59-1.72-1.94-4.28a22,22,0,0,0-1.21-2,25.32,25.32,0,0,0-1.58-2.19,26.65,26.65,0,0,0-9.74-7.52c-.87-.38-1.7-.74-2.51-1a21.87,21.87,0,0,0-2.27-.69C118.23,419.09,116.42,419,116.43,418.89Z" style="fill:#263238"></path></g><g id="freepik--Folder--inject-6"><path d="M299,234.54,263.6,416.34,259,440.14,495,439c10.6-.05,20-9.46,23.39-23.44l41.86-171.63c2.59-10.61-3.09-21.65-11.13-21.64l-238.92.25C305,222.53,300.34,227.45,299,234.54Z" style="fill:#407BFF"></path><g style="opacity:0.5"><path d="M299,234.54,263.6,416.34,259,440.14,495,439c10.6-.05,20-9.46,23.39-23.44l41.86-171.63c2.59-10.61-3.09-21.65-11.13-21.64l-238.92.25C305,222.53,300.34,227.45,299,234.54Z"></path></g><path d="M472.39,404l-25-201.41c-1-8.25-7.59-14.41-15.36-14.38l-54.8.17a15,15,0,0,0-10.83,4.8l-26,27.67L188,221.67c-9.31.05-16.47,8.87-15.24,18.77l23.21,186.15c1,8.24,7.59,14.39,15.34,14.38l265.65-.53c29.58.61,32.41-8.12,32.41-8.12C475.41,439.83,472.39,404.05,472.39,404Z" style="fill:#407BFF"></path><g style="opacity:0.5"><polygon points="357.84 363.72 348.88 373.34 279.88 311.26 288.84 301.64 357.84 363.72" style="fill:#fff"></polygon><polygon points="345.13 299.51 355.03 308.42 292.6 375.47 282.69 366.56 345.13 299.51" style="fill:#fff"></polygon></g></g></svg>